<svg width="155" height="57" xmlns="http://www.w3.org/2000/svg" xmlns:xlink="http://www.w3.org/1999/xlink"><defs><path d="M44 52V31h4.86c3.3 0 4.92 1.83 4.92 5.19v2.07c0 3.36-1.62 5.19-4.92 5.19H47.3V52H44zm3.3-11.55h1.56c1.05 0 1.62-.48 1.62-1.98v-2.49c0-1.5-.57-1.98-1.62-1.98H47.3v6.45zM55.38 52V31h9v3h-5.7v5.55h4.53v3h-4.53V49h5.7v3h-9zm10.69 0V31h4.89c3.42 0 4.89 1.59 4.89 4.83v1.29c0 2.16-.69 3.54-2.16 4.14v.06c1.65.51 2.19 2.07 2.19 4.44v3.69c0 1.02.03 1.77.36 2.55h-3.36c-.18-.54-.3-.87-.3-2.58v-3.84c0-1.95-.57-2.58-2.07-2.58h-1.14v9h-3.3zm3.3-12h1.2c1.23 0 1.98-.54 1.98-2.22v-1.62c0-1.5-.51-2.16-1.68-2.16h-1.5v6zm12.88 12.3c-3.24 0-4.86-1.92-4.86-5.28v-1.2h3.12v1.44c0 1.5.66 2.04 1.71 2.04 1.05 0 1.71-.54 1.71-2.1 0-1.74-.66-2.85-2.82-4.74-2.76-2.43-3.66-4.14-3.66-6.54 0-3.3 1.71-5.22 4.92-5.22s4.8 1.92 4.8 5.28v.87h-3.12v-1.08c0-1.5-.6-2.07-1.65-2.07-1.05 0-1.65.57-1.65 2.01 0 1.53.69 2.64 2.85 4.53 2.76 2.43 3.63 4.11 3.63 6.72 0 3.42-1.74 5.34-4.98 5.34zm6.67-.3V31h9v3h-5.7v5.55h4.53v3h-4.53V49h5.7v3h-9zm15.34.3c-3.18 0-4.86-1.92-4.86-5.16V35.86c0-3.24 1.68-5.16 4.86-5.16 3.18 0 4.86 1.92 4.86 5.16v2.22H106v-2.43c0-1.38-.66-1.95-1.65-1.95-.99 0-1.65.57-1.65 1.95v11.73c0 1.38.66 1.92 1.65 1.92.99 0 1.65-.54 1.65-1.92v-3.21h3.12v2.97c0 3.24-1.68 5.16-4.86 5.16zm11.44 0c-3.24 0-4.92-1.92-4.92-5.28V31h3.3v16.26c0 1.5.63 2.04 1.68 2.04 1.05 0 1.68-.54 1.68-2.04V31h3.18v16.02c0 3.36-1.68 5.28-4.92 5.28zm9.64-.3V34h-3.45v-3h10.2v3h-3.45v18h-3.3zm8.14 0V31h9v3h-5.7v5.55h4.53v3h-4.53V49h5.7v3h-9zm10.69 0V31h5.04c3.3 0 4.92 1.83 4.92 5.19v10.62c0 3.36-1.62 5.19-4.92 5.19h-5.04zm3.3-3h1.68c1.05 0 1.68-.54 1.68-2.04V36.04c0-1.5-.63-2.04-1.68-2.04h-1.68v15zM44 28V7h3.3v8.55h3.54V7h3.3v21h-3.3v-9.45H47.3V28H44zm12.4 0V7h9v3h-5.7v5.55h4.53v3H59.7V25h5.7v3h-9zm10.69 0V7h3.3v18h5.43v3h-8.73zm10.12 0V7h4.86c3.3 0 4.92 1.83 4.92 5.19v2.07c0 3.36-1.62 5.19-4.92 5.19h-1.56V28h-3.3zm3.3-11.55h1.56c1.05 0 1.62-.48 1.62-1.98v-2.49c0-1.5-.57-1.98-1.62-1.98h-1.56v6.45zM95.77 28V10h-3.45V7h10.2v3h-3.45v18h-3.3zm8.14 0V7h3.3v8.55h3.54V7h3.3v21h-3.3v-9.45h-3.54V28h-3.3zm12.4 0V7h9v3h-5.7v5.55h4.53v3h-4.53V25h5.7v3h-9zM13.222 6.925l.114-.251c.042-.019.069-.04.095-.04.299-.003.598-.017.896.002.088.006.176.015.264.025l.003-.009a.127.127 0 0 1 .082.019c.23.028.459.062.689.076.343.02.696-.06 1.028.02.393.096.795.144 1.175.395.227.15.497.217.75.401l.102-.103.03.194c.025.016.05.047.075.046.23-.007.392.194.566.338.24.2.496.4.679.678.174.265.306.585.48.86.078.123.11.295.163.444.113.315.223.626.299.967.07.312.111.638.225.946.132.355.143 1.989.104 2.437-.163.176.12.414-.047.589-.034.504-.323.912-.312 1.433 0 .02.002.043-.005.056-.109.199-.259.379-.325.594-.573.743-.556 1.37-1.526 2.105-.634.48-1.96 1.062-3.071 1.39.023.09.067.17.022.257-.053.105.004.243-.088.351-.046.054-.015.25-.005.379.008.105-.07.177-.015.32.047.124-.012.327-.032.6-.002-.009.04.092.041.193l.002.27a3.36 3.36 0 0 0 .546-.056c.36-.072.792-.043 1.2-.087.728-.077 1.487-.09 2.234-.095 1.521-.01 3.042-.003 4.563-.004a46.298 46.298 0 0 0-.008-.32l.086-.001c.009-.585.001-1.171.005-1.765l-.13-.035c.108-.381.033-.78.05-1.174.002-.052-.042-.108-.058-.145.021-.076.057-.147.058-.22.005-.43.05-.87-.007-1.288-.12-.88.01-1.77-.077-2.64-.112-1.114-.044-2.225-.062-3.337-.017-1.108-.004-2.217-.003-3.326 0-.206 0-.405.069-.608.062-.183-.005-.393.062-.612.07-.23.053-.537-.03-.825l.053-.077-.144-.068.142-.358c0-.262-.003-.575 0-.888.003-.228-.041-.494.034-.674.081-.197-.05-.44.115-.589.018-.016 0-.095.003-.144.046-.594.084-1.189.222-1.766.042-.174.024-.367.07-.557.038-.16-.035-.365-.061-.575.043-.274.358-.098.397-.362.419-.055.802-.22 1.21-.228.393-.007.784-.13 1.201-.063l.209.618c.128.326-.21.666.02 1.002l-.084.118.065.183c-.012.037-.047.1-.05.167a3.89 3.89 0 0 0-.002.496c.053.703-.078 1.393-.088 2.093-.003.229-.087.462-.064.704.007.073.038.143.06.225-.118.153-.136.363-.142.595-.013.516-.056 1.031-.07 1.548-.012.512-.002 1.026-.003 1.539 0 .064.012.16-.015.186-.16.163.042.355-.03.523-.01.021.045.08.043.119-.01.204-.146.406-.066.6.085.204.067.404.068.609.003.794-.001 1.588.003 2.383 0 .158.035.316.035.475 0 .145-.023.29-.037.435-.025.252-.06.502-.073.754-.013.247.043.516-.013.74-.112.452-.036.904-.067 1.353-.013.188.028.374-.065.564-.046.093.001.28.028.418.05.257.056.266-.03.538l.082.185-.06.085c.018.137.044.242.044.347.003 1.026.002 2.052.002 3.078v.054a17.517 17.517 0 0 1 1.773.006c.32.016.63.103.988.067l.149-.17c.03.132.224.16.372.226.11.049.182.224.108.274-.179.12.213.146.083.25-.106.086-.14.197-.187.27l.663.35.282-.072.032.123-.34.09c.126.024.217.043.331.066l-.132.089c.13.235.13.235-.087.745l-.161-.181c-.033.02-.092.04-.086.053.048.1.108.198.174.312l.226-.107c.081.043.156.083.241.13l-.608.147-.152.193c.098.1.245.219-.04.333l.28.165c-.436-.038-.683-.074-.93-.077-.26-.002-.57.082-.766.03-.213-.058-.453.05-.618-.069-.029-.02-.152-.002-.232-.003a151.28 151.28 0 0 1-1.374-.01.98.98 0 0 1-.008.033c-.098.348.045.715-.12 1.026.103.167.06.364.06.548-.001.103-.038.205-.068.352l.074.128c-.077.238-.141.486-.025.758a.54.54 0 0 1 .016.332c-.125.361-.058.736-.067 1.104-.012.463-.032.93.01 1.388.018.199-.136.32-.056.54.05.138-.025.35-.032.53-.007.215-.001.43-.001.645v.596c0 .199-.007.398.002.596.008.187-.179.367-.012.558-.128.165-.052.373-.063.56-.014.214-.003.43-.003.645v.596c0 .215.006.43-.002.645-.008.22.03.442-.065.661-.039.09.071.289.032.378-.057.134-.035.254-.039.377-.009.297-.003.595-.003.904l.144.065-.127.325c.042.213.226.425.07.708l.132.06-.085.215.143.08c.035.426.083.838.1 1.253.017.43.003.86.004 1.29.002.404-.132.792-.075 1.2.012.088.033.173.054.28 0 0-.029.02-.033.047-.07.417-.167 1.636-.089 1.93.1.37.065.738.059 1.104-.004.206.072.394.019.618-.05.21-.033.463-.005.689.029.24-.08.43-.087.655-.005.202.068.423-.068.609-.025.035-.009.129-.003.194.057.588-.097 1.16-.08 1.746.002.07-.054.14-.058.213-.006.102.012.206.024.358l-.043.064c.036.014.07.023.1.04.02.011.036.035.06.06l-.152.07c.013.21-.062.44.072.636-.116.37-.113.74-.005 1.13-.02.065-.058.148-.067.237-.013.113.002.232-.005.347-.006.103.01.19.074.255-.096.075-.053.146.023.217l-.214.404-.063-.064-.111.081-.01-.162.137-.066a.32.32 0 0 0-.114-.369c-.152.074-.306.147-.459.225-.022.011-.036.045-.05.062l-.201-.128v-.485c-.071.054-.126.073-.149.119-.044.089-.07.193-.103.292-.13-.087-.262-.157-.375-.01l-.432-.224-.022-.128c-.022.01-.04.018-.057.029-.147.099-.031.309-.13.488l-.14-.424-.306-.14-.065.24-.25-.129c-.009-.028-.024-.057-.024-.086-.001-.364.003-.728-.003-1.092-.002-.087-.034-.173-.06-.297.015-.077.073-.209.052-.312-.02-.094.005-.191-.017-.254-.069-.19-.001-.373-.016-.539-.017-.202.051-.398-.003-.594a.664.664 0 0 1-.026-.232c.007-.071.063-.137.063-.206 0-.07-.061-.139-.062-.209 0-.07.042-.14.068-.216a1.899 1.899 0 0 1-.028-1.018c.06-.273.041-.71-.045-.935.133-.121.059-.301.075-.455.018-.161.047-.326.036-.485-.01-.15-.066-.293-.102-.439.16-.142-.033-.272-.008-.414l.176-.109-.168-.298.138-.065c-.012-.24.039-.504-.034-.777-.025-.095.037-.223.037-.337.004-1.059.001-2.118.003-3.177 0-.114.004-.223-.072-.304.097-.074.068-.198.07-.309a2.28 2.28 0 0 0 0-.248c-.007-.093-.028-.185-.034-.278-.003-.058.03-.155.013-.17-.12-.105.042-.146.026-.233-.017-.094-.004-.197-.004-.296 0-1.06.002-2.119-.002-3.178 0-.162-.039-.325-.038-.487 0-.191.031-.381.039-.573.007-.181.001-.364.001-.546v-.595c0-.182-.008-.365.002-.546.02-.39.06-.778.071-1.168.013-.43-.038-.87.017-1.288.04-.304.018-.614.074-.901.056-.289.058-.569.065-.856.005-.19.102-.351.08-.556-.017-.169-.04-.357.07-.506.013-.017.004-.065.001-.097-.057-.621.088-1.227.079-1.846-.01-.628 0-1.258-.005-1.886 0-.054-.02-.108-.04-.17l.003-.09.08-.092-.075-.097.01-.39c-1.846-.032-3.691-.06-5.538-.026-.483.009-.967.041-1.444.086-.429.04-.871.08-1.27.167-.01.105-.018.21-.023.316a2.63 2.63 0 0 0 0 .235c-.037.026-.071.077-.095.18v.215a.432.432 0 0 0-.06.177c-.025.178-.045.356-.062.534.032.532.07 1.063.04 1.597.137.682.05 1.38.065 2.07.005.263-.046.528-.063.793-.005.07.022.145.04.258-.082.201-.082.463-.113.716.023.191.047.376.067.55.04.338.072.676.1 1.014-.087.706-.096 1.422-.09 2.142 0 .146.068.268.036.425-.031.15-.029.316-.03.475-.002.72-.047 1.447.013 2.156.06.727.047 1.447.055 2.17.008.72.005 1.44 0 2.16-.002.185.06.356.01.56-.042.176-.008.388-.008.585 0 .212.029.435-.006.636-.077.443-.064.889-.063 1.335 0 .202-.03.41.063.603.023.05-.027.169-.044.264.012.048.05.12.046.188-.014.315.06.643-.065.942a.18.18 0 0 0 0 .097c.125.497-.04.99-.008 1.49.031.504.044 1.02-.005 1.518-.038.382-.054.758-.058 1.143l-.142.21c.011.22-.015.446.03.74l-.213.536-.453.343-.084-.075c-.099.095-.249.127-.33.053-.127-.115-.224.105-.327-.008l-.044-.17h-.152l-.066.193c-.15.012-.165-.175-.213-.334-.166.177-.322.184-.467.02l-.085.105-.307-.35.114-.054v-.827l-.247-.398.038-.066c-.02-.169-.053-.335-.057-.502-.008-.408-.048-.83.007-1.224.11-.79.032-1.579.058-2.366.006-.192-.033-.386-.032-.578 0-.222.027-.444.033-.666.006-.212.001-.425.001-.638v-2.6c0-.213.006-.426-.002-.638-.005-.138.049-.297-.053-.4.03-.089.05-.143.066-.193l-.073-.11c.022-.057.054-.109.06-.166.018-.184-.048-.359-.006-.56.039-.18.008-.388.008-.585 0-.212-.02-.43.007-.636.02-.144-.096-.252-.032-.376.053-.105-.004-.244.087-.351.046-.054.016-.25.006-.38-.008-.105.07-.177.015-.32-.048-.123.012-.327.032-.6a.544.544 0 0 1-.042-.193 97.34 97.34 0 0 1-.003-.995c-.106-.173-.148-.461-.185-.66a8.342 8.342 0 0 1-.127-.961c-.028-.416.046-.815.065-1.227a2.63 2.63 0 0 0 0-.235c.037-.026.071-.077.095-.18 0-.44-.015-.963.01-1.483.007-.14-.101-.224-.04-.38.03-.077-.03-.22-.038-.333-.01-.14-.013-.268-.062-.408-.046-.132-.034-.33-.003-.48.029-.138-.085-.214-.026-.377.04-.108-.056-.308-.054-.486.008-.884-.001-1.767.006-2.65.002-.2.028-.405.07-.596.13-.606.184-1.222.204-1.843-1.09 0-2.18 0-3.27-.003-.22 0-.44-.032-.698-.052-.192.015-.45.069-.677.043-.157-.018-.303-.084-.495-.076-.184.008-.371-.001-.556.003-.062.002-.14 0-.213.001.011.429.038.858.1 1.279-.028.392-.073.784-.046 1.182.04.62.071 1.252.02 1.868-.033.4.004.806-.055 1.192-.128.843-.004 1.683-.03 2.523-.005.18.005.361.008.542-.173.102 0 .277-.056.43a.745.745 0 0 0 .04.557c.044.085.06.232.031.324-.127.41-.034.83-.056 1.244-.017.332-.053.662-.061.995-.008.327.005.656.014.984.004.106.027.21.049.37l-.123.106.008.536c.003.148.008.296.006.443-.002.16.023.34-.029.473-.047.123.144.266-.111.32l.233.188c.002.43.155.795.104 1.184-.02.152-.059.301-.07.454a3.19 3.19 0 0 0 .006.442c.006.096.067.217.037.279-.056.117.037.225.031.235-.124.226-.03.47-.05.702-.03.347.086.709-.065 1.044.079.103.015.206.013.313-.011.644-.083 1.282-.068 1.93.015.674-.084 1.35-.038 2.029-.156.604-.043 1.221-.042 1.831.001.231-.08.428-.085.65-.004.2.087.424-.065.602-.007.008 0 .032 0 .048-.02.436-.03.873-.064 1.307-.026.338-.084.672-.127 1.005l-.31.129-.067-.071-.08.092-.096-.1c-.15.061-.285.224-.466.039-.063-.065-.206-.01-.312-.018-.179-.012-.363.057-.537-.08-.042-.032-.138.04-.216.066l-.197-.087-.26.27-.274-.622-.075.09c-.18-.124-.18-.124-.248-.466l-.051.46c-.064-.217-.112-.434-.002-.646l-.146-.173.202-.403c-.015-.073-.033-.172-.058-.269-.019-.073-.126-.138-.007-.216-.056-.085-.142-.167-.024-.273-.137-.268-.018-.529.011-.793.002-.013-.006-.03-.014-.041-.018-.025-.038-.046-.074-.088l.19-.17-.087-.342c.025-.01.071-.032.158-.071-.076-.038-.124-.06-.196-.097l.174-.1-.166-.095.077-.106-.094-.12c.198-.241 0-.58.14-.856a.35.35 0 0 0-.058-.393c.03-.063.058-.125.084-.184L3.1 49.9l.168-.16c-.031-.25-.056-.467-.087-.683a.563.563 0 0 1 .075-.355c.06-.114-.095-.188-.04-.33.03-.078-.038-.214-.063-.33l.187-.086-.24-.196c.13-.054.165-.213.224-.366l-.087-.15.181-.082-.18-.08.027-.344a48.205 48.205 0 0 0-.139-.046l.247-.243-.16-.097c.172-.408-.01-.817.125-1.193.006.007-.027-.012-.03-.037-.016-.11-.02-.222-.033-.332a.41.41 0 0 1 .067-.3c-.097-.077-.092-.192-.06-.3.031-.099.085-.188.132-.287l-.072-.092.09-.122-.066-.16.17-1.284c-.127-.105.014-.293-.025-.456-.004-.02.04-.054.036-.077-.063-.486.1-.955.061-1.439a2.914 2.914 0 0 1-.005-.393c.006-.115.073-.254.038-.336a.418.418 0 0 1-.024-.308 1.79 1.79 0 0 0 .046-.368c.007-.13-.011-.264-.001-.394.011-.152.14-.308.063-.447-.088-.16.037-.28.002-.417-.038-.15.014-.31.039-.44.031-.164.017-.317.024-.473.007-.18-.004-.361-.006-.542l-.017-1.034c-.004-.246.013-.496-.018-.737-.028-.223.082-.433.012-.65.122-.098-.115-.222.024-.357.061-.06.025-.273.027-.417.003-.131-.003-.262-.005-.394-.002-.147-.015-.296-.005-.443.015-.217.056-.432.065-.65.01-.229-.014-.46-.004-.69.007-.176.125-.32.04-.537-.054-.139.005-.347.022-.523.007-.073.037-.143.052-.196-.021-.09-.06-.179-.057-.264.007-.15.04-.3.061-.45-.144-.09.128-.3-.073-.375.123-.146.06-.33.066-.5.005-.163-.004-.328-.007-.492l-.007-.492c-.003-.164-.012-.329-.007-.492a2.74 2.74 0 0 0 0-.157 42.33 42.33 0 0 1-1.652.022c-.792-.008-1.558-.145-2.27-.318 0-.302-.08-.566.017-.81.18-.457.11-.915.15-1.373.012-.143.126-.284.21-.46l.495-.273c1.045-.02 2.085-.045 3.124-.064.02-.443.034-.887.01-1.331.145-1.183.007-2.37.024-3.556.134-.522.045-1.056.053-1.585 0-.086-.037-.173-.06-.271l.143-.064c-.04-.155.052-.338-.078-.486.092-.152.056-.327.057-.495 0-.18-.047-.381.003-.536.057-.178-.082-.347-.01-.457.11-.172.054-.342.061-.511.009-.18.005-.362-.008-.541-.012-.171.042-.357-.073-.535a1.11 1.11 0 0 0 .14-.625c-.035-.514.117-1.018.059-1.537-.01-.096.065-.203.065-.305 0-.12.031-.248-.049-.372-.032-.05.034-.186.043-.285.026-.298.056-.597.065-.896.008-.311-.052-.635-.004-.933.12-.744.005-1.488.043-2.228.015-.298.094-.592.058-.896-.008-.073-.043-.141-.068-.218.183-.188-.006-.435.034-.662.04-.234 0-.487.013-.73.014-.251-.038-.496.044-.76.066-.213.002-.483.013-.727.012-.25.046-.499.071-.753.068-.056.152-.102.208-.18.056-.078.084-.187.12-.272l.194-.003.053.18.606-.011c.115-.306.405-.3.619-.361.29-.081.626-.143.898.152.152-.026.116.278.277.237-.009.159.155.257.05.482-.082.173-.24.444-.04.69-.129.216-.042.461-.054.693-.004.068.04.14.061.212-.017.057-.056.128-.055.198.003.176.006.356.041.524.033.155-.041.28-.037.43.01.33.058.665-.047.998-.041.129.04.308.039.464a.83.83 0 0 1-.068.368c-.086.159-.03.315-.039.47-.008.148.003.296.005.444.003.197.016.395.007.59-.013.284-.053.565-.062.848-.009.278.04.566-.003.833-.022.133-.063.267-.06.408.01.506.023 1.013.039 1.52 0 .023.036.045.076.092l-.168.143c.004.258-.005.473.015.684.016.17-.05.321-.04.492.014.204-.021.412-.026.618-.004.197.008.394.006.591 0 .06-.01.13-.04.175-.097.154.008.261.051.384-.025.085-.064.168-.074.256-.018.169.059.324.016.513-.044.197-.004.423 0 .636l.01.591c.002.197.009.394.008.591-.002.765-.102 1.526-.043 2.292-.123.321-.063.662-.062.995 0 .069.043.138.057.18-.046.153-.13.298-.124.437.027.636-.098 1.263-.068 1.897a.479.479 0 0 0-.03.094 6.7 6.7 0 0 0-.107.694c.981 0 1.963.004 2.944.004l2.933.002c0-.283-.008-.565-.031-.844-.06-.726-.047-1.446-.055-2.17-.008-.719-.005-1.439 0-2.158.002-.186-.06-.358-.01-.561.042-.176.008-.389.008-.585 0-.213-.029-.435.006-.636.077-.443.063-.889.062-1.335 0-.203.03-.41-.062-.603-.024-.05.026-.169.044-.264-.013-.048-.05-.12-.047-.189.014-.314-.06-.642.066-.942a.18.18 0 0 0 0-.096c-.125-.497.04-.99.008-1.49a9.514 9.514 0 0 1 .005-1.519c.038-.381.054-.758.058-1.143l.142-.208c-.011-.221.015-.447-.03-.741l.213-.536.083-.063zm2.59 3.36c-.11.789-.032 1.577-.058 2.363-.006.192.032.385.032.578-.001.222-.027.444-.033.666-.006.212-.002.425-.002.637v2.575c.557-.218 1.057-.55 1.425-1.033.125-.164.24-.348.342-.544.192-.254.404-.487.476-.864 0-.237-.016-.476.004-.71.027-.317-.07-.594-.128-.884-.035-.177-.044-.42-.134-.509-.138-.136-.055-.335-.145-.469-.042-.06-.04-.175-.061-.29a1.258 1.258 0 0 0-.272-.369c-.316-.496-.84-.88-1.447-1.147z" id="a"/></defs><g fill="none" fill-rule="evenodd"><mask id="b" fill="#fff"><use xlink:href="#a"/></mask><use fill="#000" xlink:href="#a"/><g mask="url(#b)" fill="#222223"><path d="M0 0h155v56H0z"/></g></g></svg>